<?xml version="1.0" encoding="UTF-8"?>
<svg id="Layer_2" data-name="Layer 2" xmlns="http://www.w3.org/2000/svg" viewBox="0 0 192 100">
  <defs>
    <style>
      .cls-1 {
        fill: #231f20;
        stroke-width: 0px;
      }
    </style>
  </defs>
  <g id="Layer_1-2" data-name="Layer 1">
    <g>
      <g>
        <g>
          <path class="cls-1" d="M160.75,6.25h22.77c8.13,0,14.73,6.6,14.73,14.73v10.27h-22.77c-8.13,0-14.73-6.6-14.73-14.73V6.25h0Z" transform="translate(160.75 198.25) rotate(-90)"/>
          <path class="cls-1" d="M168.86,62.5h35.64v10.64c0,7.93-6.44,14.36-14.36,14.36h-35.64v-10.64c0-7.93,6.44-14.36,14.36-14.36Z" transform="translate(254.5 -104.5) rotate(90)"/>
        </g>
        <g>
          <path class="cls-1" d="M144.48,6.25h22.77v10.27c0,8.13-6.6,14.73-14.73,14.73h-22.77v-10.27c0-8.13,6.6-14.73,14.73-14.73Z" transform="translate(129.75 167.25) rotate(-90)"/>
          <path class="cls-1" d="M123.5,62.5h35.64c7.93,0,14.36,6.44,14.36,14.36v10.64h-35.64c-7.93,0-14.36-6.44-14.36-14.36v-10.64h0Z" transform="translate(223.5 -73.5) rotate(90)"/>
        </g>
      </g>
      <g>
        <g>
          <path class="cls-1" d="M24.75,6.25h22.77c8.13,0,14.73,6.6,14.73,14.73v10.27h-22.77c-8.13,0-14.73-6.6-14.73-14.73V6.25h0Z" transform="translate(24.75 62.25) rotate(-90)"/>
          <path class="cls-1" d="M32.86,62.5h35.64v10.64c0,7.93-6.44,14.36-14.36,14.36H18.5v-10.64c0-7.93,6.44-14.36,14.36-14.36Z" transform="translate(118.5 31.5) rotate(90)"/>
        </g>
        <path class="cls-1" d="M21.05,0h0C23.23,0,25,1.77,25,3.95v92.09c0,2.18-1.77,3.95-3.95,3.95h0C9.43,100,0,90.57,0,78.95V21.05C0,9.43,9.43,0,21.05,0Z" transform="translate(25 100) rotate(180)"/>
      </g>
      <g>
        <path class="cls-1" d="M70.62,0h12.28C88.48,0,93,4.52,93,10.1v79.81c0,5.57-4.52,10.1-10.1,10.1h-12.28c-1.45,0-2.62-1.18-2.62-2.62V2.62C68,1.18,69.18,0,70.62,0Z" transform="translate(161 100) rotate(180)"/>
        <path class="cls-1" d="M119.37,0h0C121.93,0,124,2.07,124,4.63v90.74c0,2.56-2.07,4.63-4.63,4.63h0c-11.24,0-20.37-9.13-20.37-20.37V20.37C99,9.13,108.13,0,119.37,0Z" transform="translate(223 100) rotate(180)"/>
      </g>
    </g>
  </g>
</svg>